<svg id="Capa_1" enable-background="new 0 0 512 512" height="512" viewBox="0 0 512 512" width="512" xmlns="http://www.w3.org/2000/svg"><path d="m180.25 128h30v30h-30z"/><path d="m180.25 218h30v30h-30z"/><path d="m301.75 128.063h30v30h-30z"/><path d="m301.75 218.063h30v30h-30z"/><path d="m489.96 262.22c-13.044-13.044-30.035-20.684-48.29-21.853v-54.697c0-102.38-83.29-185.67-185.67-185.67s-185.67 83.29-185.67 185.67v54.696c-18.256 1.169-35.256 8.81-48.3 21.854-14.21 14.21-22.03 33.11-22.03 53.22 0 28.16 15.77 53.72 40.17 66.59v102.3h30.225v27.67h30v-27.67h311.333v27.67h30v-27.67h30.102v-102.3c24.4-12.87 40.17-38.43 40.17-66.59 0-20.11-7.83-39.01-22.04-53.22zm-389.63-76.55c0-85.84 69.83-155.67 155.67-155.67 85.83 0 155.67 69.83 155.67 155.67v58.782c-10.468 3.686-20.063 9.69-28.14 17.768-13.711 13.711-21.451 31.792-21.979 51.11h-211.102c-.529-19.318-8.277-37.399-21.989-51.11-8.075-8.075-17.667-14.079-28.13-17.765zm261.17 157.66v30.67h-211v-30.67zm90.33 14.79-10 3.53v92.68h-371.66v-92.68l-10.01-3.53c-18.04-6.37-30.16-23.53-30.16-42.68 0-12.09 4.7-23.46 13.25-32 8.54-8.55 19.91-13.25 32-13.25s23.46 4.7 32 13.25c8.54 8.54 13.25 19.91 13.25 32v88.56h271v-88.56c0-12.09 4.7-23.46 13.25-32 8.54-8.55 19.91-13.25 32-13.25s23.46 4.7 32 13.25c8.54 8.54 13.25 19.91 13.25 32 0 19.15-12.12 36.31-30.17 42.68z"/></svg>