<svg id="Capa_1" enable-background="new 0 0 512 512" height="512" viewBox="0 0 512 512" width="512" xmlns="http://www.w3.org/2000/svg"><path d="m180.48 313.33h151.04c1.107-57.082 47.655-103.14 105.23-103.14 1.65 0 3.29.04 4.92.12v-24.64c0-102.38-83.29-185.67-185.67-185.67-102.37 0-185.66 83.29-185.66 185.67v24.64c1.63-.08 3.27-.12 4.91-.12 57.587 0 104.123 46.047 105.23 103.14zm121.02-215.69h30v30h-30zm0 90h30v30h-30zm-121.5-90.06h30v30h-30zm0 90h30v30h-30z"/><path d="m180.5 343.33h151v30.67h-151z"/><path d="m489.97 262.22c-14.204-14.204-33.122-22.03-53.22-22.03-20.1 0-39 7.82-53.21 22.03s-22.04 33.11-22.04 53.22v88.56h-211v-88.56c0-20.11-7.82-39.01-22.03-53.22s-33.11-22.03-53.22-22.03c-19.412 0-38.521 7.341-53.21 22.03-14.21 14.21-22.04 33.11-22.04 53.22 0 31.099 15.77 50.767 40.17 67.07v101.82h30.167v27.67h30v-27.67h311.333v27.67h30v-27.67h30.16v-101.82c24.68-16.465 40.17-36.244 40.17-67.07 0-20.11-7.82-39.01-22.03-53.22z"/></svg>