<?xml version="1.0" encoding="iso-8859-1"?>
<!-- Generator: Adobe Illustrator 19.0.0, SVG Export Plug-In . SVG Version: 6.00 Build 0)  -->
<svg version="1.1" id="Capa_1" xmlns="http://www.w3.org/2000/svg" xmlns:xlink="http://www.w3.org/1999/xlink" x="0px" y="0px"
	 viewBox="0 0 512 512" style="enable-background:new 0 0 512 512;" xml:space="preserve">
<g>
	<g>
		<g>
			<rect x="42.667" y="405.333" width="42.667" height="21.333"/>
			<rect x="42.667" y="448" width="85.333" height="21.333"/>
			<path d="M501.333,256c5.891,0,10.667-4.776,10.667-10.667V10.667C512,4.776,507.224,0,501.333,0H160
				c-5.891,0-10.667,4.776-10.667,10.667v160H42.667V160c0-5.891,4.776-10.667,10.667-10.667H128V128H53.333
				c-17.673,0-32,14.327-32,32v12.495C8.906,176.888,0,188.735,0,202.667V480c0,17.673,14.327,32,32,32h384
				c13.932,0,25.778-8.906,30.172-21.333h12.495c17.673,0,32-14.327,32-32v-74.666C503.62,374.27,512,358.781,512,341.333
				c0-17.448-8.38-32.937-21.333-42.667v-21.333h-21.333v11.736c-3.447-0.7-7.013-1.069-10.667-1.069H448v-32H501.333z
				 M490.667,21.333V128h-320V21.333H490.667z M170.667,149.333h320v85.333H448v-32c0-17.673-14.327-32-32-32H170.667V149.333z
				 M469.333,458.667c0,5.891-4.776,10.667-10.667,10.667H448v-74.667h10.667c3.653,0,7.22-0.369,10.667-1.069V458.667z
				 M490.667,341.333c0,17.673-14.327,32-32,32H416c-17.673,0-32-14.327-32-32c0-17.673,14.327-32,32-32h42.667
				C476.34,309.333,490.667,323.66,490.667,341.333z M416,288c-29.455,0-53.333,23.878-53.333,53.333
				c0,29.455,23.878,53.333,53.333,53.333h10.667V480c0,5.891-4.776,10.667-10.667,10.667H32c-5.891,0-10.667-4.776-10.667-10.667
				V202.667C21.333,196.776,26.109,192,32,192h384c5.891,0,10.667,4.776,10.667,10.667V288H416z"/>
			<path d="M224,106.667c8.197,0,15.672-3.086,21.333-8.155c5.662,5.069,13.136,8.155,21.333,8.155c17.673,0,32-14.327,32-32
				c0-17.673-14.327-32-32-32c-8.197,0-15.672,3.086-21.333,8.155c-5.662-5.069-13.136-8.155-21.333-8.155
				c-17.673,0-32,14.327-32,32C192,92.34,206.327,106.667,224,106.667z M266.667,64c5.891,0,10.667,4.776,10.667,10.667
				c0,5.891-4.776,10.667-10.667,10.667c-5.891,0-10.667-4.776-10.667-10.667C256,68.776,260.776,64,266.667,64z M224,64
				c5.891,0,10.667,4.776,10.667,10.667c0,5.891-4.776,10.667-10.667,10.667s-10.667-4.776-10.667-10.667
				C213.333,68.776,218.109,64,224,64z"/>
			<rect x="320" y="64" width="42.667" height="21.333"/>
			<rect x="384" y="64" width="42.667" height="21.333"/>
			<rect x="448" y="64" width="21.333" height="21.333"/>
			<rect x="405.333" y="330.667" width="21.333" height="21.333"/>
		</g>
	</g>
</g>
<g>
</g>
<g>
</g>
<g>
</g>
<g>
</g>
<g>
</g>
<g>
</g>
<g>
</g>
<g>
</g>
<g>
</g>
<g>
</g>
<g>
</g>
<g>
</g>
<g>
</g>
<g>
</g>
<g>
</g>
</svg>
